<?xml version="1.0" encoding="utf-8"?>
<!-- Generator: Adobe Illustrator 24.0.3, SVG Export Plug-In . SVG Version: 6.00 Build 0)  -->
<svg version="1.1" id="Layer_1" xmlns="http://www.w3.org/2000/svg" xmlns:xlink="http://www.w3.org/1999/xlink" x="0px" y="0px"
	 viewBox="0 0 100 125" style="enable-background:new 0 0 100 125;" xml:space="preserve">
<style type="text/css">
	.st0{fill:#1235D1;}
</style>
<g>
	<rect x="43.2" y="24.6" class="st0" width="4.5" height="11.4"/>
	<rect x="13.6" y="51.9" class="st0" width="11.4" height="4.5"/>
	
		<rect x="23.1" y="30.7" transform="matrix(0.7069 -0.7073 0.7073 0.7069 -18.2975 28.6189)" class="st0" width="4.5" height="11.4"/>
	
		<rect x="19.7" y="74.3" transform="matrix(0.7079 -0.7064 0.7064 0.7079 -46.6312 40.2906)" class="st0" width="11.4" height="4.5"/>
	<path class="st0" d="M47.7,40.7c-0.7-0.1-1.5-0.2-2.3-0.2c-8.8,0-15.9,7.1-15.9,15.9s7.1,15.9,15.9,15.9c0.8,0,1.5-0.1,2.3-0.2
		V40.7z"/>
	<path class="st0" d="M65.9,75V36h-4.5v39c-3.9,1-6.8,4.5-6.8,8.8c0,5,4.1,9.1,9.1,9.1s9.1-4.1,9.1-9.1C72.7,79.5,69.8,76,65.9,75"
		/>
	<path class="st0" d="M75,69.6V36c0-6.3-5.1-11.4-11.4-11.4S52.2,29.7,52.2,36v33.6c-4.2,3.3-6.8,8.4-6.8,14.2
		c0,10,8.2,18.2,18.2,18.2s18.2-8.2,18.2-18.2C81.8,78,79.2,72.9,75,69.6 M63.6,97.4c-7.5,0-13.6-6.1-13.6-13.6
		c0-5,2.7-9.4,6.8-11.8V36c0-3.8,3.1-6.8,6.8-6.8c3.8,0,6.8,3.1,6.8,6.8v36c4.1,2.4,6.8,6.8,6.8,11.8C77.3,91.3,71.2,97.4,63.6,97.4
		"/>
</g>
</svg>
