<?xml version="1.0" encoding="utf-8"?>
<!-- Generator: Adobe Illustrator 24.0.3, SVG Export Plug-In . SVG Version: 6.00 Build 0)  -->
<svg version="1.1" id="Layer_1" xmlns="http://www.w3.org/2000/svg" xmlns:xlink="http://www.w3.org/1999/xlink" x="0px" y="0px"
	 viewBox="0 0 100 125" style="enable-background:new 0 0 100 125;" xml:space="preserve">
<style type="text/css">
	.st0{fill:#1235D1;}
</style>
<g>
	<g>
		<g>
			<path class="st0" d="M25.5,78.8H9.4c-1.5,0-2.7,1.2-2.7,2.7s1.2,2.7,2.7,2.7h62.3c4.5,0,8.1,3.6,8.1,8.1s-3.6,8.1-8.1,8.1H58.1
				c-1.5,0-2.7,1.2-2.7,2.7s1.2,2.7,2.7,2.7h13.5c7.5,0,13.5-6.1,13.5-13.5s-6.1-13.5-13.5-13.5C59.6,78.8,34.7,78.8,25.5,78.8z"/>
			<path class="st0" d="M50,70.6c6,0,10.8-4.9,10.8-10.8S56,49,50,49h-5.4c-1.5,0-2.7,1.2-2.7,2.7s1.2,2.7,2.7,2.7H50
				c3,0,5.4,2.4,5.4,5.4S53,65.2,50,65.2H9.4c-1.5,0-2.7,1.2-2.7,2.7s1.2,2.7,2.7,2.7H50z"/>
		</g>
		<path class="st0" d="M84.9,44.6c0.4-1.6,0.7-3.3,0.7-5.1c0-11.2-9.1-20.3-20.3-20.3c-9.1,0-16.9,6-19.4,14.3
			c-2.4-2.2-5.5-3.5-9-3.5c-6.8,0-12.5,5.1-13.4,11.7c-9.2,1-16.4,9-16.4,18.5c0,0.8,0.1,1.6,0.2,2.3H50c1.5,0,2.7-1.2,2.7-2.7
			c0-1.5-1.2-2.7-2.7-2.7h-5.4c-3,0-5.4-2.4-5.4-5.4s2.4-5.4,5.4-5.4H50c7.5,0,13.5,6.1,13.5,13.5c0,5.5-3.3,10.3-8.1,12.4V76h16.3
			c2.9,0,5.6,0.8,7.9,2.1c7.9-2.1,13.7-9.4,13.7-18C93.3,53.7,90,47.9,84.9,44.6z"/>
	</g>
</g>
</svg>
